<svg xmlns="http://www.w3.org/2000/svg" xmlns:xlink="http://www.w3.org/1999/xlink" width="500" zoomAndPan="magnify" viewBox="0 0 375 374.999991" height="500" preserveAspectRatio="xMidYMid meet" version="1.2"><defs><filter x="0%" y="0%" width="100%" filterUnits="objectBoundingBox" id="1084c3ccc8" height="100%"><feColorMatrix values="0 0 0 0 1 0 0 0 0 1 0 0 0 0 1 0 0 0 1 0" type="matrix" in="SourceGraphic"/></filter><clipPath id="bb6453ad10"><path d="M 0.359375 0.160156 L 40 0.160156 L 40 12 L 0.359375 12 Z M 0.359375 0.160156 "/></clipPath><clipPath id="d964c6dcfe"><path d="M 67 27 L 131.878906 27 L 131.878906 111.761719 L 67 111.761719 Z M 67 27 "/></clipPath><clipPath id="377a49e2d1"><rect x="0" width="132" y="0" height="112"/></clipPath><clipPath id="e78f4c2d07"><path d="M 0.238281 234 L 13 234 L 13 247 L 0.238281 247 Z M 0.238281 234 "/></clipPath><clipPath id="a78719ae76"><path d="M 244 235 L 258.960938 235 L 258.960938 250 L 244 250 Z M 244 235 "/></clipPath><clipPath id="1b5d6544cf"><path d="M 142 254 L 149 254 L 149 260.398438 L 142 260.398438 Z M 142 254 "/></clipPath><clipPath id="ec983e19d4"><path d="M 99 0.480469 L 106 0.480469 L 106 7 L 99 7 Z M 99 0.480469 "/></clipPath><clipPath id="61e091e6a0"><rect x="0" width="259" y="0" height="261"/></clipPath></defs><g id="44b38baa0b"><path style=" stroke:none;fill-rule:nonzero;fill:#000000;fill-opacity:1;" d="M 315.996094 190.113281 L 108.808594 70.488281 L 108.808594 309.738281 Z M 315.996094 190.113281 "/><path style=" stroke:none;fill-rule:nonzero;fill:#d11d4d;fill-opacity:1;" d="M 251.882812 204.8125 L 219 223.796875 L 190.191406 240.433594 L 153.59375 261.5625 C 149.054688 264.179688 144.058594 264.4375 139.707031 262.953125 C 138.835938 262.664062 137.996094 262.300781 137.1875 261.871094 C 132.347656 259.316406 128.730469 254.472656 128.199219 248.417969 C 128.152344 247.910156 128.132812 247.390625 128.132812 246.859375 L 128.132812 133.367188 C 128.132812 121.882812 139.054688 114.183594 149.386719 116.917969 C 150.8125 117.296875 152.230469 117.871094 153.597656 118.667969 C 153.597656 118.667969 153.601562 118.671875 153.613281 118.675781 L 156.066406 120.09375 L 161.820312 123.410156 L 251.886719 175.414062 C 263.207031 181.945312 263.207031 198.277344 251.882812 204.8125 Z M 251.882812 204.8125 "/><path style=" stroke:none;fill-rule:nonzero;fill:#ffae00;fill-opacity:1;" d="M 251.882812 204.8125 C 251.882812 204.8125 251.878906 204.8125 251.867188 204.820312 L 219 223.800781 L 190.191406 240.433594 L 153.59375 261.5625 C 149.054688 264.1875 144.058594 264.4375 139.707031 262.957031 C 136.078125 260.21875 133.503906 256.027344 133.0625 250.996094 C 133.019531 250.488281 132.996094 249.96875 132.996094 249.4375 L 132.996094 135.941406 C 132.996094 124.457031 143.917969 116.757812 154.25 119.492188 C 154.855469 119.65625 155.464844 119.851562 156.0625 120.09375 L 161.816406 123.410156 L 251.882812 175.414062 C 263.207031 181.945312 263.207031 198.28125 251.882812 204.8125 Z M 251.882812 204.8125 "/><path style=" stroke:none;fill-rule:nonzero;fill:#000000;fill-opacity:1;" d="M 319.5 178.179688 L 252.601562 52.34375 C 240.882812 30.304688 218.109375 16.613281 193.167969 16.613281 C 189.257812 16.613281 185.3125 16.957031 181.449219 17.640625 L 42.582031 42.132812 L 96.71875 73.421875 L 21.191406 194.28125 C 13.609375 206.425781 10.125 220.386719 11.125 234.664062 C 12.121094 248.941406 17.511719 262.28125 26.71875 273.25 L 117.359375 381.265625 L 117.386719 318.738281 L 259.816406 323.714844 C 260.597656 323.742188 261.398438 323.757812 262.179688 323.757812 C 276.046875 323.757812 289.382812 319.554688 300.753906 311.605469 C 312.148438 303.640625 320.683594 292.519531 325.441406 279.453125 L 373.664062 146.949219 Z M 117.398438 294.738281 L 117.492188 85.425781 L 298.710938 190.164062 Z M 117.398438 294.738281 "/><path style=" stroke:none;fill-rule:nonzero;fill:#ffae00;fill-opacity:1;" d="M 244.921875 56.425781 L 315.996094 190.113281 L 315.980469 190.109375 L 67.601562 46.554688 L 77.007812 44.894531 L 182.957031 26.210938 C 207.980469 21.792969 232.992188 33.992188 244.921875 56.425781 Z M 244.921875 56.425781 "/><path style=" stroke:none;fill-rule:nonzero;fill:#d11d4d;fill-opacity:1;" d="M 357.328125 166.398438 L 352.628906 179.3125 L 317.269531 276.472656 C 308.585938 300.347656 285.507812 315.914062 260.121094 315.027344 L 108.808594 309.738281 L 108.835938 309.71875 Z M 357.328125 166.398438 "/><path style=" stroke:none;fill-rule:nonzero;fill:#00ffc7;fill-opacity:1;" d="M 108.804688 70.496094 L 108.71875 262.890625 L 108.675781 357.386719 L 100.945312 348.179688 L 78.949219 321.960938 L 41.195312 276.972656 L 33.375 267.65625 C 17.046875 248.195312 15.105469 220.433594 28.566406 198.886719 L 52.027344 161.351562 Z M 108.804688 70.496094 "/><path style=" stroke:none;fill-rule:nonzero;fill:#000000;fill-opacity:0.23;" d="M 108.804688 70.496094 L 78.949219 321.96875 L 41.195312 276.980469 L 33.375 267.660156 C 17.046875 248.203125 15.105469 220.441406 28.566406 198.890625 Z M 108.804688 70.496094 "/><path style=" stroke:none;fill-rule:nonzero;fill:#000000;fill-opacity:0.23;" d="M 108.804688 70.496094 L 41.195312 276.972656 L 33.375 267.65625 C 17.046875 248.195312 15.105469 220.433594 28.566406 198.886719 Z M 108.804688 70.496094 "/><path style=" stroke:none;fill-rule:nonzero;fill:#000000;fill-opacity:0.23;" d="M 315.996094 190.113281 L 113.144531 38.519531 L 170.980469 28.316406 L 182.960938 26.199219 C 207.980469 21.789062 232.992188 33.988281 244.921875 56.421875 Z M 315.996094 190.113281 "/><path style=" stroke:none;fill-rule:nonzero;fill:#000000;fill-opacity:0.23;" d="M 315.996094 190.113281 L 170.980469 28.320312 L 182.960938 26.203125 C 207.980469 21.792969 232.992188 33.992188 244.921875 56.425781 Z M 315.996094 190.113281 "/><path style=" stroke:none;fill-rule:nonzero;fill:#000000;fill-opacity:0.23;" d="M 108.804688 309.738281 L 341.511719 209.855469 L 321.425781 265.050781 L 317.265625 276.484375 C 308.578125 300.355469 285.503906 315.917969 260.113281 315.03125 Z M 108.804688 309.738281 "/><path style=" stroke:none;fill-rule:nonzero;fill:#000000;fill-opacity:0.23;" d="M 108.804688 309.738281 L 321.425781 265.046875 L 317.265625 276.476562 C 308.578125 300.347656 285.503906 315.914062 260.113281 315.027344 Z M 108.804688 309.738281 "/><path style=" stroke:none;fill-rule:nonzero;fill:#ffffff;fill-opacity:0.46;" d="M 315.996094 190.109375 L 315.980469 190.105469 L 67.601562 46.554688 L 77.011719 44.890625 Z M 315.996094 190.109375 "/><path style=" stroke:none;fill-rule:nonzero;fill:#ffffff;fill-opacity:0.46;" d="M 108.804688 70.496094 L 108.675781 357.386719 L 100.945312 348.179688 Z M 108.804688 70.496094 "/><path style=" stroke:none;fill-rule:nonzero;fill:#ffffff;fill-opacity:0.46;" d="M 357.328125 166.398438 L 352.628906 179.3125 L 108.808594 309.738281 L 108.835938 309.71875 Z M 357.328125 166.398438 "/><g mask="url(#da02b45623)" transform="matrix(1,0,0,1,129,116)"><g clip-path="url(#377a49e2d1)"><g clip-rule="nonzero" clip-path="url(#bb6453ad10)"><path style=" stroke:none;fill-rule:nonzero;fill:#000000;fill-opacity:1;" d="M 18.53125 8.195312 C 25.867188 8.195312 32.949219 9.296875 39.613281 11.335938 L 32.820312 7.410156 L 24.613281 2.675781 C 24.601562 2.671875 24.597656 2.667969 24.597656 2.667969 C 23.222656 1.871094 21.8125 1.296875 20.386719 0.917969 C 12.3125 -1.21875 3.878906 3.019531 0.578125 10.453125 C 6.3125 8.980469 12.332031 8.195312 18.53125 8.195312 Z M 18.53125 8.195312 "/></g><g clip-rule="nonzero" clip-path="url(#d964c6dcfe)"><path style=" stroke:none;fill-rule:nonzero;fill:#000000;fill-opacity:1;" d="M 122.882812 59.414062 L 67.570312 27.476562 C 81.710938 40.628906 90.558594 59.394531 90.558594 80.230469 C 90.558594 91.488281 87.976562 102.136719 83.371094 111.625 L 89.996094 107.800781 L 122.878906 88.820312 C 134.207031 82.277344 134.207031 65.945312 122.882812 59.414062 Z M 122.882812 59.414062 "/></g></g><mask id="da02b45623"><g filter="url(#1084c3ccc8)"><rect x="0" width="375" y="0" height="374.999991" style="fill:#000000;fill-opacity:0.23;stroke:none;"/></g></mask></g><path style=" stroke:none;fill-rule:nonzero;fill:#000000;fill-opacity:0.23;" d="M 128.125 219.371094 L 128.125 246.859375 C 128.125 247.390625 128.152344 247.910156 128.191406 248.417969 C 129.265625 260.558594 142.734375 267.828125 153.589844 261.5625 L 172.359375 250.722656 C 153.230469 247.675781 137.046875 235.785156 128.125 219.371094 Z M 128.125 219.371094 "/><path style=" stroke:none;fill-rule:nonzero;fill:#000000;fill-opacity:0.23;" d="M 108.71875 262.890625 L 108.675781 357.386719 L 100.945312 348.179688 L 78.949219 321.960938 L 41.195312 276.972656 L 33.375 267.65625 C 17.046875 248.195312 15.105469 220.433594 28.566406 198.886719 L 52.027344 161.351562 C 44.035156 186.511719 42.296875 217.308594 62.144531 246.417969 C 78.472656 270.371094 94.71875 271.296875 108.71875 262.890625 Z M 108.71875 262.890625 "/><path style=" stroke:none;fill-rule:nonzero;fill:#000000;fill-opacity:0.23;" d="M 149.417969 93.835938 L 67.601562 46.554688 L 79.441406 44.460938 L 113.144531 38.519531 L 170.980469 28.316406 L 182.960938 26.199219 C 207.980469 21.789062 232.992188 33.988281 244.921875 56.421875 L 265.699219 95.507812 C 247.90625 76.003906 222.105469 59.101562 186.976562 61.734375 C 158.0625 63.902344 149.140625 77.507812 149.417969 93.835938 Z M 149.417969 93.835938 "/><path style=" stroke:none;fill-rule:nonzero;fill:#000000;fill-opacity:0.23;" d="M 275.472656 213.609375 L 357.328125 166.398438 L 353.222656 177.695312 L 341.515625 209.851562 L 321.429688 265.046875 L 317.269531 276.476562 C 308.582031 300.347656 285.507812 315.914062 260.117188 315.027344 L 215.878906 313.476562 C 241.664062 307.820312 269.207031 293.925781 284.492188 262.183594 C 297.074219 236.0625 289.753906 221.535156 275.472656 213.609375 Z M 275.472656 213.609375 "/><path style=" stroke:none;fill-rule:nonzero;fill:#ffffff;fill-opacity:0.32;" d="M 251.882812 204.8125 L 219 223.796875 L 190.191406 240.433594 L 153.59375 261.5625 C 148.148438 264.707031 142.050781 264.445312 137.1875 261.871094 Z M 251.882812 204.8125 "/><path style=" stroke:none;fill-rule:nonzero;fill:#ffffff;fill-opacity:0.18;" d="M 220.738281 187.339844 L 216.859375 189.585938 L 197.632812 200.683594 L 177.382812 212.375 L 151.664062 227.21875 C 148.476562 229.0625 144.964844 229.242188 141.902344 228.203125 C 139.351562 226.277344 137.546875 223.328125 137.234375 219.796875 C 137.203125 219.4375 137.1875 219.074219 137.1875 218.703125 L 137.1875 138.9375 C 137.1875 130.867188 144.863281 125.457031 152.125 127.378906 C 152.550781 127.492188 152.976562 127.628906 153.398438 127.800781 L 157.441406 130.132812 L 220.738281 166.675781 C 228.695312 171.265625 228.695312 182.746094 220.738281 187.339844 Z M 220.738281 187.339844 "/><path style=" stroke:none;fill-rule:nonzero;fill:#ffffff;fill-opacity:0.32;" d="M 220.742188 184.101562 L 197.632812 197.445312 L 177.382812 209.140625 L 151.667969 223.984375 C 148.480469 225.828125 144.964844 226.007812 141.90625 224.96875 C 139.355469 223.046875 137.546875 220.097656 137.234375 216.5625 C 137.203125 216.203125 137.1875 215.839844 137.1875 215.46875 L 137.1875 135.699219 C 137.1875 127.628906 144.867188 122.21875 152.125 124.140625 C 152.554688 124.253906 152.980469 124.390625 153.398438 124.558594 L 157.441406 126.890625 L 220.738281 163.4375 C 228.695312 168.03125 228.695312 179.511719 220.742188 184.101562 Z M 220.742188 184.101562 "/><g mask="url(#ea80787555)" transform="matrix(1,0,0,1,54,36)"><g clip-path="url(#61e091e6a0)"><path style=" stroke:none;fill-rule:nonzero;fill:#ffffff;fill-opacity:1;" d="M 44.171875 198.058594 L 44.171875 198.054688 C 44.179688 198.058594 44.179688 198.058594 44.179688 198.0625 C 44.179688 198.0625 44.179688 198.0625 44.171875 198.058594 Z M 44.171875 198.058594 "/><path style=" stroke:none;fill-rule:nonzero;fill:#ffffff;fill-opacity:1;" d="M 8.078125 140.296875 C 8.078125 140.636719 8.011719 140.960938 7.882812 141.277344 C 7.753906 141.589844 7.566406 141.867188 7.328125 142.105469 C 7.085938 142.347656 6.8125 142.53125 6.496094 142.660156 C 6.183594 142.789062 5.855469 142.855469 5.519531 142.855469 C 5.179688 142.855469 4.851562 142.789062 4.539062 142.660156 C 4.226562 142.53125 3.949219 142.347656 3.707031 142.105469 C 3.46875 141.867188 3.28125 141.589844 3.152344 141.277344 C 3.023438 140.960938 2.957031 140.636719 2.957031 140.296875 C 2.957031 139.957031 3.023438 139.628906 3.152344 139.316406 C 3.28125 139.003906 3.46875 138.726562 3.707031 138.488281 C 3.949219 138.246094 4.226562 138.0625 4.539062 137.929688 C 4.851562 137.800781 5.179688 137.738281 5.519531 137.738281 C 5.855469 137.738281 6.183594 137.800781 6.496094 137.929688 C 6.8125 138.0625 7.085938 138.246094 7.328125 138.488281 C 7.566406 138.726562 7.753906 139.003906 7.882812 139.316406 C 8.011719 139.628906 8.078125 139.957031 8.078125 140.296875 Z M 8.078125 140.296875 "/><path style=" stroke:none;fill-rule:nonzero;fill:#ffffff;fill-opacity:1;" d="M 35.089844 183.261719 C 35.089844 183.636719 35.050781 184.003906 34.980469 184.371094 C 34.90625 184.738281 34.800781 185.089844 34.65625 185.4375 C 34.511719 185.78125 34.339844 186.105469 34.132812 186.417969 C 33.925781 186.726562 33.6875 187.011719 33.425781 187.277344 C 33.164062 187.539062 32.875 187.777344 32.566406 187.984375 C 32.253906 188.191406 31.929688 188.363281 31.585938 188.507812 C 31.238281 188.648438 30.886719 188.757812 30.519531 188.832031 C 30.152344 188.902344 29.785156 188.941406 29.414062 188.941406 C 29.039062 188.941406 28.671875 188.902344 28.304688 188.832031 C 27.9375 188.757812 27.585938 188.648438 27.238281 188.507812 C 26.894531 188.363281 26.570312 188.191406 26.257812 187.984375 C 25.949219 187.777344 25.660156 187.539062 25.398438 187.277344 C 25.136719 187.011719 24.898438 186.726562 24.691406 186.417969 C 24.484375 186.105469 24.3125 185.78125 24.167969 185.4375 C 24.027344 185.089844 23.917969 184.738281 23.84375 184.371094 C 23.773438 184.003906 23.734375 183.636719 23.734375 183.261719 C 23.734375 182.890625 23.773438 182.523438 23.84375 182.15625 C 23.917969 181.789062 24.027344 181.4375 24.167969 181.089844 C 24.3125 180.746094 24.484375 180.421875 24.691406 180.109375 C 24.898438 179.800781 25.136719 179.511719 25.398438 179.25 C 25.660156 178.988281 25.949219 178.75 26.257812 178.542969 C 26.570312 178.335938 26.894531 178.164062 27.238281 178.019531 C 27.585938 177.875 27.9375 177.769531 28.304688 177.695312 C 28.671875 177.625 29.039062 177.585938 29.414062 177.585938 C 29.785156 177.585938 30.152344 177.625 30.519531 177.695312 C 30.886719 177.769531 31.238281 177.875 31.585938 178.019531 C 31.929688 178.164062 32.253906 178.335938 32.566406 178.542969 C 32.875 178.75 33.164062 178.988281 33.425781 179.25 C 33.6875 179.511719 33.925781 179.800781 34.132812 180.109375 C 34.339844 180.421875 34.511719 180.746094 34.65625 181.089844 C 34.800781 181.4375 34.90625 181.789062 34.980469 182.15625 C 35.050781 182.523438 35.089844 182.890625 35.089844 183.261719 Z M 35.089844 183.261719 "/><g clip-rule="nonzero" clip-path="url(#e78f4c2d07)"><path style=" stroke:none;fill-rule:nonzero;fill:#ffffff;fill-opacity:1;" d="M 12.929688 240.40625 C 12.929688 240.816406 12.890625 241.222656 12.8125 241.625 C 12.730469 242.023438 12.613281 242.414062 12.457031 242.792969 C 12.300781 243.171875 12.109375 243.53125 11.882812 243.871094 C 11.652344 244.210938 11.394531 244.527344 11.105469 244.816406 C 10.816406 245.105469 10.5 245.363281 10.160156 245.589844 C 9.820312 245.816406 9.460938 246.007812 9.082031 246.167969 C 8.707031 246.324219 8.316406 246.441406 7.914062 246.519531 C 7.511719 246.601562 7.109375 246.640625 6.699219 246.640625 C 6.289062 246.640625 5.882812 246.601562 5.480469 246.519531 C 5.082031 246.441406 4.691406 246.324219 4.3125 246.167969 C 3.933594 246.007812 3.574219 245.816406 3.234375 245.589844 C 2.894531 245.363281 2.578125 245.105469 2.289062 244.816406 C 2 244.527344 1.742188 244.210938 1.515625 243.871094 C 1.289062 243.53125 1.097656 243.171875 0.9375 242.792969 C 0.78125 242.414062 0.664062 242.023438 0.585938 241.625 C 0.503906 241.222656 0.464844 240.816406 0.464844 240.40625 C 0.464844 239.996094 0.503906 239.59375 0.585938 239.191406 C 0.664062 238.789062 0.78125 238.398438 0.9375 238.023438 C 1.097656 237.644531 1.289062 237.285156 1.515625 236.945312 C 1.742188 236.605469 2 236.289062 2.289062 236 C 2.578125 235.710938 2.894531 235.453125 3.234375 235.222656 C 3.574219 234.996094 3.933594 234.804688 4.3125 234.648438 C 4.691406 234.492188 5.082031 234.375 5.480469 234.292969 C 5.882812 234.214844 6.289062 234.175781 6.699219 234.175781 C 7.109375 234.175781 7.511719 234.214844 7.914062 234.292969 C 8.316406 234.375 8.707031 234.492188 9.082031 234.648438 C 9.460938 234.804688 9.820312 234.996094 10.160156 235.222656 C 10.5 235.453125 10.816406 235.710938 11.105469 236 C 11.394531 236.289062 11.652344 236.605469 11.882812 236.945312 C 12.109375 237.285156 12.300781 237.644531 12.457031 238.023438 C 12.613281 238.398438 12.730469 238.789062 12.8125 239.191406 C 12.890625 239.59375 12.929688 239.996094 12.929688 240.40625 Z M 12.929688 240.40625 "/></g><path style=" stroke:none;fill-rule:nonzero;fill:#ffffff;fill-opacity:1;" d="M 208.210938 249.542969 C 208.210938 249.929688 208.136719 250.300781 207.988281 250.65625 C 207.839844 251.015625 207.628906 251.328125 207.359375 251.601562 C 207.085938 251.875 206.769531 252.085938 206.414062 252.230469 C 206.058594 252.378906 205.6875 252.453125 205.300781 252.453125 C 204.914062 252.453125 204.542969 252.378906 204.1875 252.230469 C 203.832031 252.085938 203.515625 251.875 203.242188 251.601562 C 202.972656 251.328125 202.761719 251.015625 202.613281 250.65625 C 202.464844 250.300781 202.390625 249.929688 202.390625 249.542969 C 202.390625 249.160156 202.464844 248.789062 202.613281 248.429688 C 202.761719 248.074219 202.972656 247.761719 203.242188 247.488281 C 203.515625 247.214844 203.832031 247.003906 204.1875 246.855469 C 204.542969 246.710938 204.914062 246.636719 205.300781 246.636719 C 205.6875 246.636719 206.058594 246.710938 206.414062 246.855469 C 206.769531 247.003906 207.085938 247.214844 207.359375 247.488281 C 207.628906 247.761719 207.839844 248.074219 207.988281 248.429688 C 208.136719 248.789062 208.210938 249.160156 208.210938 249.542969 Z M 208.210938 249.542969 "/><path style=" stroke:none;fill-rule:nonzero;fill:#ffffff;fill-opacity:1;" d="M 249.289062 189.339844 C 249.289062 189.644531 249.230469 189.9375 249.113281 190.214844 C 249 190.496094 248.832031 190.742188 248.617188 190.957031 C 248.40625 191.171875 248.15625 191.335938 247.878906 191.453125 C 247.597656 191.570312 247.304688 191.625 247.003906 191.625 C 246.699219 191.625 246.40625 191.570312 246.128906 191.453125 C 245.847656 191.335938 245.601562 191.171875 245.386719 190.957031 C 245.171875 190.742188 245.007812 190.496094 244.890625 190.214844 C 244.773438 189.9375 244.71875 189.644531 244.71875 189.339844 C 244.71875 189.039062 244.773438 188.746094 244.890625 188.464844 C 245.007812 188.1875 245.171875 187.9375 245.386719 187.726562 C 245.601562 187.511719 245.847656 187.34375 246.128906 187.230469 C 246.40625 187.113281 246.699219 187.054688 247.003906 187.054688 C 247.304688 187.054688 247.597656 187.113281 247.878906 187.230469 C 248.15625 187.34375 248.40625 187.511719 248.617188 187.726562 C 248.832031 187.9375 249 188.1875 249.113281 188.464844 C 249.230469 188.746094 249.289062 189.039062 249.289062 189.339844 Z M 249.289062 189.339844 "/><g clip-rule="nonzero" clip-path="url(#a78719ae76)"><path style=" stroke:none;fill-rule:nonzero;fill:#ffffff;fill-opacity:1;" d="M 258.425781 242.777344 C 258.425781 243.226562 258.382812 243.675781 258.292969 244.117188 C 258.207031 244.558594 258.074219 244.984375 257.902344 245.402344 C 257.730469 245.816406 257.519531 246.210938 257.269531 246.585938 C 257.019531 246.960938 256.734375 247.308594 256.417969 247.625 C 256.097656 247.945312 255.753906 248.230469 255.378906 248.480469 C 255.003906 248.730469 254.609375 248.941406 254.191406 249.113281 C 253.777344 249.285156 253.347656 249.414062 252.90625 249.503906 C 252.464844 249.589844 252.019531 249.632812 251.570312 249.632812 C 251.117188 249.632812 250.671875 249.589844 250.230469 249.503906 C 249.789062 249.414062 249.359375 249.285156 248.945312 249.113281 C 248.527344 248.941406 248.132812 248.730469 247.757812 248.480469 C 247.386719 248.230469 247.039062 247.945312 246.71875 247.625 C 246.402344 247.308594 246.117188 246.960938 245.867188 246.585938 C 245.617188 246.210938 245.40625 245.816406 245.234375 245.402344 C 245.0625 244.984375 244.933594 244.558594 244.84375 244.117188 C 244.757812 243.675781 244.710938 243.226562 244.710938 242.777344 C 244.710938 242.328125 244.757812 241.882812 244.84375 241.441406 C 244.933594 241 245.0625 240.570312 245.234375 240.152344 C 245.40625 239.738281 245.617188 239.34375 245.867188 238.96875 C 246.117188 238.59375 246.402344 238.246094 246.71875 237.929688 C 247.039062 237.609375 247.386719 237.328125 247.757812 237.078125 C 248.132812 236.828125 248.527344 236.617188 248.945312 236.441406 C 249.359375 236.269531 249.789062 236.140625 250.230469 236.054688 C 250.671875 235.964844 251.117188 235.921875 251.570312 235.921875 C 252.019531 235.921875 252.464844 235.964844 252.90625 236.054688 C 253.347656 236.140625 253.777344 236.269531 254.191406 236.441406 C 254.609375 236.617188 255.003906 236.828125 255.378906 237.078125 C 255.753906 237.328125 256.097656 237.609375 256.417969 237.929688 C 256.734375 238.246094 257.019531 238.59375 257.269531 238.96875 C 257.519531 239.34375 257.730469 239.738281 257.902344 240.152344 C 258.074219 240.570312 258.207031 241 258.292969 241.441406 C 258.382812 241.882812 258.425781 242.328125 258.425781 242.777344 Z M 258.425781 242.777344 "/></g><g clip-rule="nonzero" clip-path="url(#1b5d6544cf)"><path style=" stroke:none;fill-rule:nonzero;fill:#ffffff;fill-opacity:1;" d="M 148.792969 257.109375 C 148.792969 257.515625 148.71875 257.90625 148.5625 258.277344 C 148.40625 258.652344 148.1875 258.984375 147.898438 259.269531 C 147.613281 259.554688 147.28125 259.777344 146.910156 259.933594 C 146.535156 260.085938 146.144531 260.164062 145.738281 260.164062 C 145.335938 260.164062 144.945312 260.085938 144.570312 259.933594 C 144.195312 259.777344 143.867188 259.554688 143.578125 259.269531 C 143.292969 258.984375 143.070312 258.652344 142.917969 258.277344 C 142.761719 257.90625 142.683594 257.515625 142.683594 257.109375 C 142.683594 256.703125 142.761719 256.316406 142.917969 255.941406 C 143.070312 255.566406 143.292969 255.234375 143.578125 254.949219 C 143.867188 254.664062 144.195312 254.441406 144.570312 254.285156 C 144.945312 254.132812 145.335938 254.054688 145.738281 254.054688 C 146.144531 254.054688 146.535156 254.132812 146.910156 254.285156 C 147.28125 254.441406 147.613281 254.664062 147.898438 254.949219 C 148.1875 255.234375 148.40625 255.566406 148.5625 255.941406 C 148.71875 256.316406 148.792969 256.703125 148.792969 257.109375 Z M 148.792969 257.109375 "/></g><g clip-rule="nonzero" clip-path="url(#ec983e19d4)"><path style=" stroke:none;fill-rule:nonzero;fill:#ffffff;fill-opacity:1;" d="M 105.292969 3.492188 C 105.292969 3.847656 105.226562 4.1875 105.089844 4.511719 C 104.957031 4.839844 104.761719 5.125 104.511719 5.375 C 104.265625 5.625 103.976562 5.820312 103.648438 5.953125 C 103.324219 6.089844 102.984375 6.15625 102.628906 6.15625 C 102.277344 6.15625 101.9375 6.089844 101.609375 5.953125 C 101.285156 5.820312 100.996094 5.625 100.746094 5.375 C 100.496094 5.125 100.304688 4.839844 100.167969 4.511719 C 100.035156 4.1875 99.96875 3.847656 99.96875 3.492188 C 99.96875 3.140625 100.035156 2.800781 100.167969 2.472656 C 100.304688 2.148438 100.496094 1.859375 100.746094 1.609375 C 100.996094 1.359375 101.285156 1.167969 101.609375 1.03125 C 101.9375 0.898438 102.277344 0.828125 102.628906 0.828125 C 102.984375 0.828125 103.324219 0.898438 103.648438 1.03125 C 103.976562 1.167969 104.265625 1.359375 104.511719 1.609375 C 104.761719 1.859375 104.957031 2.148438 105.089844 2.472656 C 105.226562 2.800781 105.292969 3.140625 105.292969 3.492188 Z M 105.292969 3.492188 "/></g><path style=" stroke:none;fill-rule:nonzero;fill:#ffffff;fill-opacity:1;" d="M 164.550781 52.527344 C 164.550781 52.941406 164.472656 53.335938 164.316406 53.714844 C 164.160156 54.097656 163.933594 54.433594 163.644531 54.722656 C 163.351562 55.011719 163.015625 55.238281 162.636719 55.394531 C 162.257812 55.550781 161.863281 55.632812 161.449219 55.632812 C 161.039062 55.632812 160.644531 55.550781 160.261719 55.394531 C 159.882812 55.238281 159.546875 55.011719 159.257812 54.722656 C 158.964844 54.433594 158.742188 54.097656 158.582031 53.714844 C 158.425781 53.335938 158.347656 52.941406 158.347656 52.527344 C 158.347656 52.117188 158.425781 51.722656 158.582031 51.339844 C 158.742188 50.960938 158.964844 50.625 159.257812 50.335938 C 159.546875 50.042969 159.882812 49.820312 160.261719 49.664062 C 160.644531 49.503906 161.039062 49.425781 161.449219 49.425781 C 161.863281 49.425781 162.257812 49.503906 162.636719 49.664062 C 163.015625 49.820312 163.351562 50.042969 163.644531 50.335938 C 163.933594 50.625 164.160156 50.960938 164.316406 51.339844 C 164.472656 51.722656 164.550781 52.117188 164.550781 52.527344 Z M 164.550781 52.527344 "/><path style=" stroke:none;fill-rule:nonzero;fill:#ffffff;fill-opacity:1;" d="M 215.898438 98.292969 C 215.898438 98.445312 215.867188 98.589844 215.808594 98.730469 C 215.753906 98.871094 215.667969 98.992188 215.5625 99.101562 C 215.457031 99.207031 215.332031 99.289062 215.191406 99.347656 C 215.050781 99.40625 214.90625 99.433594 214.753906 99.433594 C 214.601562 99.433594 214.457031 99.40625 214.316406 99.347656 C 214.175781 99.289062 214.054688 99.207031 213.945312 99.101562 C 213.839844 98.992188 213.757812 98.871094 213.699219 98.730469 C 213.640625 98.589844 213.613281 98.445312 213.613281 98.292969 C 213.613281 98.140625 213.640625 97.996094 213.699219 97.855469 C 213.757812 97.714844 213.839844 97.589844 213.945312 97.484375 C 214.054688 97.375 214.175781 97.292969 214.316406 97.234375 C 214.457031 97.179688 214.601562 97.148438 214.753906 97.148438 C 214.90625 97.148438 215.050781 97.179688 215.191406 97.234375 C 215.332031 97.292969 215.457031 97.375 215.5625 97.484375 C 215.667969 97.589844 215.753906 97.714844 215.808594 97.855469 C 215.867188 97.996094 215.898438 98.140625 215.898438 98.292969 Z M 215.898438 98.292969 "/><path style=" stroke:none;fill-rule:nonzero;fill:#ffffff;fill-opacity:1;" d="M 105.742188 34.519531 C 105.742188 34.894531 105.707031 35.265625 105.632812 35.632812 C 105.558594 36 105.449219 36.355469 105.308594 36.703125 C 105.164062 37.050781 104.988281 37.378906 104.78125 37.691406 C 104.570312 38 104.335938 38.289062 104.070312 38.554688 C 103.804688 38.820312 103.515625 39.058594 103.203125 39.265625 C 102.894531 39.472656 102.5625 39.648438 102.21875 39.792969 C 101.871094 39.9375 101.515625 40.042969 101.148438 40.117188 C 100.777344 40.191406 100.40625 40.226562 100.03125 40.226562 C 99.65625 40.226562 99.285156 40.191406 98.917969 40.117188 C 98.550781 40.042969 98.195312 39.9375 97.847656 39.792969 C 97.5 39.648438 97.171875 39.472656 96.859375 39.265625 C 96.550781 39.058594 96.261719 38.820312 95.996094 38.554688 C 95.730469 38.289062 95.496094 38 95.285156 37.691406 C 95.078125 37.378906 94.902344 37.050781 94.757812 36.703125 C 94.613281 36.355469 94.507812 36 94.433594 35.632812 C 94.359375 35.265625 94.324219 34.894531 94.324219 34.519531 C 94.324219 34.144531 94.359375 33.773438 94.433594 33.40625 C 94.507812 33.035156 94.613281 32.679688 94.757812 32.332031 C 94.902344 31.988281 95.078125 31.660156 95.285156 31.347656 C 95.496094 31.035156 95.730469 30.746094 95.996094 30.480469 C 96.261719 30.214844 96.550781 29.980469 96.859375 29.769531 C 97.171875 29.5625 97.5 29.386719 97.847656 29.242188 C 98.195312 29.101562 98.550781 28.992188 98.917969 28.917969 C 99.285156 28.847656 99.65625 28.808594 100.03125 28.808594 C 100.40625 28.808594 100.777344 28.847656 101.148438 28.917969 C 101.515625 28.992188 101.871094 29.101562 102.21875 29.242188 C 102.5625 29.386719 102.894531 29.5625 103.203125 29.769531 C 103.515625 29.980469 103.804688 30.214844 104.070312 30.480469 C 104.335938 30.746094 104.570312 31.035156 104.78125 31.347656 C 104.988281 31.660156 105.164062 31.988281 105.308594 32.332031 C 105.449219 32.679688 105.558594 33.035156 105.632812 33.40625 C 105.707031 33.773438 105.742188 34.144531 105.742188 34.519531 Z M 105.742188 34.519531 "/><path style=" stroke:none;fill-rule:nonzero;fill:#ffffff;fill-opacity:1;" d="M 148.972656 70.726562 C 148.972656 71.152344 148.894531 71.5625 148.730469 71.953125 C 148.566406 72.347656 148.335938 72.691406 148.035156 72.992188 C 147.734375 73.292969 147.390625 73.523438 146.996094 73.6875 C 146.605469 73.847656 146.195312 73.929688 145.773438 73.929688 C 145.347656 73.929688 144.9375 73.847656 144.546875 73.6875 C 144.15625 73.523438 143.808594 73.292969 143.507812 72.992188 C 143.207031 72.691406 142.976562 72.347656 142.8125 71.953125 C 142.652344 71.5625 142.570312 71.152344 142.570312 70.726562 C 142.570312 70.304688 142.652344 69.894531 142.8125 69.503906 C 142.976562 69.109375 143.207031 68.765625 143.507812 68.464844 C 143.808594 68.164062 144.15625 67.933594 144.546875 67.769531 C 144.9375 67.609375 145.347656 67.527344 145.773438 67.527344 C 146.195312 67.527344 146.605469 67.609375 146.996094 67.769531 C 147.390625 67.933594 147.734375 68.164062 148.035156 68.464844 C 148.335938 68.765625 148.566406 69.109375 148.730469 69.503906 C 148.894531 69.894531 148.972656 70.304688 148.972656 70.726562 Z M 148.972656 70.726562 "/></g><mask id="ea80787555"><g filter="url(#1084c3ccc8)"><rect x="0" width="375" y="0" height="374.999991" style="fill:#000000;fill-opacity:0.32;stroke:none;"/></g></mask></g><path style=" stroke:none;fill-rule:nonzero;fill:#ffffff;fill-opacity:0.2471;" d="M 137.1875 166.480469 L 137.1875 218.703125 C 137.1875 219.074219 137.203125 219.4375 137.234375 219.796875 C 137.546875 223.328125 139.351562 226.277344 141.902344 228.203125 C 144.964844 229.242188 148.476562 229.0625 151.664062 227.21875 L 177.382812 212.375 L 189.628906 205.304688 C 154.277344 220.71875 140.207031 191.03125 137.1875 166.480469 Z M 137.1875 166.480469 "/><path style=" stroke:none;fill-rule:nonzero;fill:#ffffff;fill-opacity:0.32;" d="M 251.867188 204.820312 L 219 223.800781 L 190.191406 240.433594 L 153.59375 261.5625 C 149.054688 264.1875 144.058594 264.4375 139.707031 262.957031 C 136.078125 260.21875 133.503906 256.027344 133.0625 250.996094 C 133.019531 250.488281 132.996094 249.96875 132.996094 249.4375 L 132.996094 241.183594 C 139.105469 245.617188 147.5625 249.214844 157.214844 246.238281 C 176.714844 240.222656 250.714844 205.367188 251.867188 204.820312 Z M 251.867188 204.820312 "/></g></svg>